# xmcd
#
# Track frame offsets:
#  150
#  17719
#  31373
#  47893
#  60458
#  76829
#  91082
#  102590
#  115056
#  125376
#  137768
#  151967
#  163614
#  176317
#
# Disc length: 2525 seconds
#
# Revision: 0
# Processed by: cddbd v1.5.1PL0 Copyright (c) Steve Scherf et al.
# Submitted via: AltoMP3_Maker 3.0
#
DISCID=a709db0e
DTITLE=Warren H Williams - places in between
DYEAR=1900
DGENRE=
TTITLE0=Hustle Bustle
TTITLE1=Big Old Moon
TTITLE2=Northern Wind
TTITLE3=Sunburnt Country
TTITLE4=Let It Rain
TTITLE5=Just Because It Feels Good
TTITLE6=What A Place
TTITLE7=Free People
TTITLE8=He Don't Love Her
TTITLE9=Weary Heart
TTITLE10=Seven Year Itch
TTITLE11=Desert Sky
TTITLE12=Northern Road
TTITLE13=Cartoon Tune
EXTD=
EXTT0=
EXTT1=
EXTT2=
EXTT3=
EXTT4=
EXTT5=
EXTT6=
EXTT7=
EXTT8=
EXTT9=
EXTT10=
EXTT11=
EXTT12=
EXTT13=
PLAYORDER=
